<svg viewBox="0 0 16 16" fill="none" xmlns="http://www.w3.org/2000/svg">
    <path d="M8 16C12.4183 16 16 12.4183 16 8C16 3.58172 12.4183 0 8 0C3.58172 0 0 3.58172 0 8C0 12.4183 3.58172 16 8 16Z" fill="#2CFF4E" fill-opacity="0.1"/>
    <path d="M8.0002 12.7992C10.6512 12.7992 12.8002 10.6502 12.8002 7.99922C12.8002 5.34825 10.6512 3.19922 8.0002 3.19922C5.34923 3.19922 3.2002 5.34825 3.2002 7.99922C3.2002 10.6502 5.34923 12.7992 8.0002 12.7992Z" fill="#2CFF4E" fill-opacity="0.3"/>
    <path d="M7.9999 9.59844C8.88356 9.59844 9.5999 8.88209 9.5999 7.99844C9.5999 7.11478 8.88356 6.39844 7.9999 6.39844C7.11625 6.39844 6.3999 7.11478 6.3999 7.99844C6.3999 8.88209 7.11625 9.59844 7.9999 9.59844Z" fill="#2CFF4E"/>
</svg>
