<svg width="26" height="26" viewBox="0 0 26 26" fill="none" xmlns="http://www.w3.org/2000/svg">
    <path fill-rule="evenodd" clip-rule="evenodd" d="M13 22.75C18.3848 22.75 22.75 18.3848 22.75 13C22.75 7.61522 18.3848 3.25 13 3.25C7.61522 3.25 3.25 7.61522 3.25 13C3.25 18.3848 7.61522 22.75 13 22.75ZM13 8.16328C13.2761 8.16328 13.5 8.38714 13.5 8.66328V12.9966C13.5 13.2728 13.2761 13.4966 13 13.4966C12.7239 13.4966 12.5 13.2728 12.5 12.9966V8.66328C12.5 8.38714 12.7239 8.16328 13 8.16328ZM13 16.8367C12.7239 16.8367 12.5 17.0606 12.5 17.3367C12.5 17.6129 12.7239 17.8367 13 17.8367H13.011C13.2871 17.8367 13.511 17.6129 13.511 17.3367C13.511 17.0606 13.2871 16.8367 13.011 16.8367H13Z" fill="#E1444D"/>
</svg>
