<svg viewBox="0 0 38 43" fill="#FFFFFF" xmlns="http://www.w3.org/2000/svg">
<g>
	<path d="M32.1,10l1.2-1.2c0.5-0.5,0.5-1.4,0-1.9c-0.5-0.5-1.4-0.5-1.9,0L30,8.3c-2.8-2-6.2-3.3-9.9-3.5
		c0-0.1,0-0.2,0-0.3V3.2h0.8c0.7,0,1.4-0.6,1.4-1.4v0c0-0.7-0.6-1.4-1.4-1.4h-4.3c-0.7,0-1.4,0.6-1.4,1.4v0c0,0.7,0.6,1.4,1.4,1.4
		h0.8v1.4c0,0.1,0,0.2,0.1,0.4C7.7,5.7,0,13.9,0,23.8c0,10.5,8.5,19,19,19s19-8.5,19-19C38,18.4,35.7,13.5,32.1,10z M19,40.8
		c-9.4,0-17-7.6-17-17s7.6-17,17-17s17,7.6,17,17S28.4,40.8,19,40.8z"/>
	<path d="M26.3,18.5l-5.5,3.1C20.3,21.2,19.7,21,19,21c-1.6,0-3,1.3-3,3c0,0.1,0,0.3,0,0.4l-0.2,0.1
		c-0.5,0.3-0.6,0.9-0.4,1.4c0.3,0.5,0.9,0.6,1.4,0.4l0.1-0.1c0.5,0.5,1.2,0.8,2,0.8c1.6,0,3-1.3,3-3c0-0.2,0-0.4-0.1-0.6l5.4-3.1
		c0.5-0.3,0.6-0.9,0.4-1.4C27.4,18.4,26.8,18.2,26.3,18.5z"/>
</g>
</svg>
