<svg version="1.1" id="Clock_gold" x="0px" y="0px"
	 viewBox="0 0 377.2 370.5">
<style type="text/css">
	.clockGold0{display:none;}
	.clockGold1{display:inline;opacity:0.4;}
	.clockGold2{fill:none;stroke:#F1A22B;stroke-width:15;stroke-miterlimit:10;}
	.clockGold3{fill:none;stroke:#F1A22B;stroke-width:15;stroke-linecap:round;stroke-linejoin:round;stroke-miterlimit:10;}
</style>
<g id="Clock_gold_g" class="clockGold0">
	<g class="clockGold1">
		<path d="M753.5,28.8l11.4-11.4l11.3,11.3c3.1,3.1,8.2,3.1,11.3,0l0,0l17-17c3.1-3.1,3.1-8.2,0-11.3l-56.6-56.6
			c-3.1-3.1-8.2-3.1-11.3,0l-17,17c-3.1,3.1-3.1,8.2,0,11.3l0,0l11.3,11.3l-15,15c-27.8-17.8-59.4-29-92.2-32.5v-17.3h24
			c4.4,0,8-3.6,8-8v-32c0-4.4-3.6-8-8-8h-96c-4.4,0-8,3.6-8,8v32c0,4.4,3.6,8,8,8h24v17.3C457.2-20.8,371.9,86.1,385.1,204.6
			c5.4,48.7,27.3,94.1,61.9,128.7c84.5,84.2,221.3,84,305.5-0.5C836.2,248.9,836.6,113.3,753.5,28.8z M742.3-39.2l45.3,45.3
			l-5.7,5.7l-45.2-45.2L742.3-39.2z M742.3-5.2l11.3,11.3l-11.8,11.8c-4.1-3.5-8.2-6.9-12.5-10.1L742.3-5.2z M559.8-67.4v-16h80v16
			H559.8z M607.8-51.4v16h-16v-16H607.8z M599.8,380.6c-110.3,0-200-89.7-200-200s89.7-200,200-200s200,89.7,200,200
			S710.1,380.6,599.8,380.6z"/>
		<path d="M599.8,12.6c-92.6,0-168,75.4-168,168s75.4,168,168,168s168-75.4,168-168S692.4,12.6,599.8,12.6z M599.8,332.6
			c-83.8,0-152-68.2-152-152s68.2-152,152-152s152,68.2,152,152S683.6,332.6,599.8,332.6z"/>
		<path d="M607.7,149.6c0-0.3,0.1-0.7,0.1-1v-48c0-4.4-3.6-8-8-8c-4.4,0-8,3.6-8,8v48c0,0.3,0,0.7,0.1,1
			c-17.1,4.4-27.5,21.8-23.1,38.9c4.4,17.1,21.8,27.5,38.9,23.1s27.5-21.8,23.1-38.9C627.9,161.3,619.1,152.5,607.7,149.6z
			 M599.8,196.6c-8.8,0-16-7.2-16-16s7.2-16,16-16s16,7.2,16,16S608.6,196.6,599.8,196.6z"/>
		<circle cx="599.8" cy="44.6" r="8"/>
		<circle cx="599.8" cy="316.6" r="8"/>
		<circle cx="735.8" cy="180.6" r="8"/>
		<circle cx="463.8" cy="180.6" r="8"/>
	</g>
</g>
<g id="Clock_gold_g_2">
	<circle class="clockGold2" cx="188.6" cy="185.3" r="23.8"/>
	<circle class="clockGold2" cx="324.8" cy="185.3" r="0.5"/>
	<circle class="clockGold2" cx="52.8" cy="185.3" r="0.5"/>
	<circle class="clockGold2" cx="188.6" cy="321.3" r="0.5"/>
	<circle class="clockGold2" cx="188.6" cy="49.3" r="0.5"/>
	<circle class="clockGold2" cx="188.6" cy="185.3" r="160"/>
	<line class="clockGold3" x1="188.6" y1="159.2" x2="188.6" y2="104.4"/>
	<line class="clockGold3" x1="215.1" y1="186" x2="254.1" y2="186"/>
</g>
</svg>

