<svg viewBox="0 0 25 25" fill="none" xmlns="http://www.w3.org/2000/svg">
    <g opacity="0.5">
        <path d="M4.05451 12H5.99951C6.52994 12 7.03865 12.2107 7.41373 12.5858C7.7888 12.9609 7.99951 13.4696 7.99951 14V15C7.99951 15.5304 8.21023 16.0391 8.5853 16.4142C8.96037 16.7893 9.46908 17 9.99951 17C10.5299 17 11.0387 17.2107 11.4137 17.5858C11.7888 17.9609 11.9995 18.4696 11.9995 19V21.945M8.99951 4.935V6.5C8.99951 7.16304 9.2629 7.79893 9.73174 8.26777C10.2006 8.73661 10.8365 9 11.4995 9H11.9995C12.5299 9 13.0387 9.21071 13.4137 9.58579C13.7888 9.96086 13.9995 10.4696 13.9995 11C13.9995 11.5304 14.2102 12.0391 14.5853 12.4142C14.9604 12.7893 15.4691 13 15.9995 13C16.5299 13 17.0387 12.7893 17.4137 12.4142C17.7888 12.0391 17.9995 11.5304 17.9995 11C17.9995 10.4696 18.2102 9.96086 18.5853 9.58579C18.9604 9.21071 19.4691 9 19.9995 9H21.0635M15.9995 21.488V19C15.9995 18.4696 16.2102 17.9609 16.5853 17.5858C16.9604 17.2107 17.4691 17 17.9995 17H21.0635M21.9995 13C21.9995 14.1819 21.7667 15.3522 21.3144 16.4442C20.8621 17.5361 20.1992 18.5282 19.3635 19.364C18.5277 20.1997 17.5356 20.8626 16.4437 21.3149C15.3517 21.7672 14.1814 22 12.9995 22C11.8176 22 10.6473 21.7672 9.55536 21.3149C8.46343 20.8626 7.47128 20.1997 6.63555 19.364C5.79982 18.5282 5.13689 17.5361 4.6846 16.4442C4.2323 15.3522 3.99951 14.1819 3.99951 13C3.99951 10.6131 4.94772 8.32387 6.63555 6.63604C8.32338 4.94821 10.6126 4 12.9995 4C15.3865 4 17.6756 4.94821 19.3635 6.63604C21.0513 8.32387 21.9995 10.6131 21.9995 13Z" stroke="white" stroke-linecap="round" stroke-linejoin="round"/>
    </g>
</svg>
