<svg viewBox="0 0 25 25" fill="none" xmlns="http://www.w3.org/2000/svg">
    <path d="M5.99951 12H4.05451C4.01757 12.3304 3.99951 12.6642 3.99951 13C3.99951 14.1819 4.2323 15.3522 4.6846 16.4441C5.13689 17.5361 5.79982 18.5282 6.63555 19.3639C7.47128 20.1997 8.46343 20.8626 9.55536 21.3149C10.338 21.6391 11.1609 21.8512 11.9995 21.945V19C11.9995 18.4695 11.7888 17.9608 11.4137 17.5858C11.0387 17.2107 10.5299 17 9.99951 17C9.46908 17 8.96037 16.7893 8.5853 16.4142C8.21023 16.0391 7.99951 15.5304 7.99951 15V14C7.99951 13.4695 7.7888 12.9608 7.41373 12.5858C7.03865 12.2107 6.52994 12 5.99951 12Z" fill="white"/>
    <path d="M15.9995 19V21.4853C16.1489 21.4325 16.297 21.3757 16.4437 21.3149C17.5356 20.8626 18.5277 20.1997 19.3635 19.3639C20.055 18.6724 20.6283 17.8737 21.0618 17H17.9995C17.4691 17 16.9604 17.2107 16.5853 17.5858C16.2102 17.9608 15.9995 18.4695 15.9995 19Z" fill="white"/>
    <path d="M4.05451 12H5.99951C6.52994 12 7.03865 12.2107 7.41373 12.5858C7.7888 12.9608 7.99951 13.4695 7.99951 14V15C7.99951 15.5304 8.21023 16.0391 8.5853 16.4142C8.96037 16.7893 9.46908 17 9.99951 17C10.5299 17 11.0387 17.2107 11.4137 17.5858C11.7888 17.9608 11.9995 18.4695 11.9995 19V21.945C12.3309 21.982 12.6647 22 12.9995 22C14.0226 22 15.0371 21.8255 15.9995 21.4853V19C15.9995 18.4695 16.2102 17.9608 16.5853 17.5858C16.9604 17.2107 17.4691 17 17.9995 17H21.0618C21.1521 16.8178 21.2364 16.6325 21.3144 16.4441C21.7667 15.3522 21.9995 14.1819 21.9995 13C21.9995 11.599 21.6729 10.2318 21.0618 8.99997H19.9995C19.4691 8.99997 18.9604 9.21068 18.5853 9.58576C18.2102 9.96083 17.9995 10.4695 17.9995 11C17.9995 11.5304 17.7888 12.0391 17.4137 12.4142C17.0387 12.7893 16.5299 13 15.9995 13C15.4691 13 14.9604 12.7893 14.5853 12.4142C14.2102 12.0391 13.9995 11.5304 13.9995 11C13.9995 10.4695 13.7888 9.96083 13.4137 9.58576C13.0387 9.21068 12.5299 8.99997 11.9995 8.99997H11.4995C10.8365 8.99997 10.2006 8.73658 9.73174 8.26774C9.2629 7.7989 8.99951 7.16301 8.99951 6.49997V4.93771C8.13258 5.3678 7.33276 5.9388 6.63555 6.63601C5.18512 8.08644 4.28019 9.98095 4.05451 12Z" fill="#C4C4C4"/>
    <path d="M8.99951 6.49997C8.99951 7.16301 9.2629 7.7989 9.73174 8.26774C10.2006 8.73658 10.8365 8.99997 11.4995 8.99997H11.9995C12.5299 8.99997 13.0387 9.21068 13.4137 9.58576C13.7888 9.96083 13.9995 10.4695 13.9995 11C13.9995 11.5304 14.2102 12.0391 14.5853 12.4142C14.9604 12.7893 15.4691 13 15.9995 13C16.5299 13 17.0387 12.7893 17.4137 12.4142C17.7888 12.0391 17.9995 11.5304 17.9995 11C17.9995 10.4695 18.2102 9.96083 18.5853 9.58576C18.9604 9.21068 19.4691 8.99997 19.9995 8.99997H21.0618C21.0538 8.98502 21.0458 8.97001 21.0376 8.95493C20.6798 8.33626 20.2926 7.78985 19.8856 7.30815C19.0937 6.39019 18.0258 5.47223 16.7089 4.83762C16.0885 4.54348 15.4742 4.33847 14.8913 4.2025C13.2197 3.82788 11.2625 3.93924 9.05529 4.91027C9.03666 4.91935 9.01807 4.9285 8.99951 4.93771V6.49997Z" fill="white"/>
    <path d="M4.05451 12L3.55761 11.9444L4.05451 12ZM7.99951 14H8.49951H7.99951ZM7.99951 15H7.49951H7.99951ZM9.99951 17V17.5V17ZM11.9995 21.945L11.944 22.4419H11.944L11.9995 21.945ZM8.99951 4.93497L8.75064 4.50131C8.5953 4.59045 8.49951 4.75587 8.49951 4.93497H8.99951ZM11.4995 8.99997V9.49997V8.99997ZM19.9995 8.99997V9.49997V8.99997ZM21.0635 8.99997V9.49997C21.2418 9.49997 21.4067 9.405 21.4961 9.25072C21.5855 9.09643 21.586 8.9062 21.4974 8.75146L21.0635 8.99997ZM15.4995 21.488C15.4995 21.7641 15.7234 21.988 15.9995 21.988C16.2757 21.988 16.4995 21.7641 16.4995 21.488H15.4995ZM17.9995 17V17.5V17ZM21.0635 17.5C21.3397 17.5 21.5635 17.2761 21.5635 17C21.5635 16.7238 21.3397 16.5 21.0635 16.5V17.5ZM21.9995 13H21.4995H21.9995ZM21.3144 16.4441L21.7764 16.6355L21.3144 16.4441ZM16.4437 21.3149L16.635 21.7768V21.7768L16.4437 21.3149ZM3.99951 13H4.49951H3.99951ZM6.63555 6.63601L6.9891 6.98956H6.9891L6.63555 6.63601ZM11.8922 4.06832L11.9537 4.56452C11.9637 4.56328 11.9737 4.56172 11.9837 4.55987L11.8922 4.06832ZM4.05451 12.5H5.99951V11.5H4.05451V12.5ZM5.99951 12.5C6.39734 12.5 6.77887 12.658 7.06017 12.9393L7.76728 12.2322C7.29844 11.7634 6.66255 11.5 5.99951 11.5V12.5ZM7.06017 12.9393C7.34148 13.2206 7.49951 13.6021 7.49951 14H8.49951C8.49951 13.3369 8.23612 12.701 7.76728 12.2322L7.06017 12.9393ZM7.49951 14V15H8.49951V14H7.49951ZM7.49951 15C7.49951 15.663 7.7629 16.2989 8.23174 16.7677L8.93885 16.0606C8.65755 15.7793 8.49951 15.3978 8.49951 15H7.49951ZM8.23174 16.7677C8.70059 17.2366 9.33647 17.5 9.99951 17.5V16.5C9.60169 16.5 9.22016 16.3419 8.93885 16.0606L8.23174 16.7677ZM9.99951 17.5C10.3973 17.5 10.7789 17.658 11.0602 17.9393L11.7673 17.2322C11.2984 16.7634 10.6626 16.5 9.99951 16.5V17.5ZM11.0602 17.9393C11.3415 18.2206 11.4995 18.6021 11.4995 19H12.4995C12.4995 18.3369 12.2361 17.701 11.7673 17.2322L11.0602 17.9393ZM11.4995 19V21.945H12.4995V19H11.4995ZM8.49951 6.49997C8.49951 7.29562 8.81558 8.05868 9.37819 8.62129L10.0853 7.91418C9.71023 7.53911 9.49951 7.0304 9.49951 6.49997H8.49951ZM9.37819 8.62129C9.9408 9.1839 10.7039 9.49997 11.4995 9.49997V8.49997C10.9691 8.49997 10.4604 8.28926 10.0853 7.91418L9.37819 8.62129ZM11.4995 9.49997H11.9995V8.49997H11.4995V9.49997ZM11.9995 9.49997C12.3973 9.49997 12.7789 9.65801 13.0602 9.93931L13.7673 9.2322C13.2984 8.76336 12.6626 8.49997 11.9995 8.49997V9.49997ZM13.0602 9.93931C13.3415 10.2206 13.4995 10.6021 13.4995 11H14.4995C14.4995 10.3369 14.2361 9.70105 13.7673 9.2322L13.0602 9.93931ZM13.4995 11C13.4995 11.663 13.7629 12.2989 14.2317 12.7677L14.9389 12.0606C14.6575 11.7793 14.4995 11.3978 14.4995 11H13.4995ZM14.2317 12.7677C14.7006 13.2366 15.3365 13.5 15.9995 13.5V12.5C15.6017 12.5 15.2202 12.3419 14.9389 12.0606L14.2317 12.7677ZM15.9995 13.5C16.6626 13.5 17.2984 13.2366 17.7673 12.7677L17.0602 12.0606C16.7789 12.3419 16.3973 12.5 15.9995 12.5V13.5ZM17.7673 12.7677C18.2361 12.2989 18.4995 11.663 18.4995 11H17.4995C17.4995 11.3978 17.3415 11.7793 17.0602 12.0606L17.7673 12.7677ZM18.4995 11C18.4995 10.6021 18.6575 10.2206 18.9389 9.93931L18.2317 9.2322C17.7629 9.70105 17.4995 10.3369 17.4995 11H18.4995ZM18.9389 9.93931C19.2202 9.65801 19.6017 9.49997 19.9995 9.49997V8.49997C19.3365 8.49997 18.7006 8.76336 18.2317 9.2322L18.9389 9.93931ZM16.4995 19C16.4995 18.6021 16.6575 18.2206 16.9389 17.9393L16.2317 17.2322C15.7629 17.701 15.4995 18.3369 15.4995 19H16.4995ZM16.9389 17.9393C17.2202 17.658 17.6017 17.5 17.9995 17.5V16.5C17.3365 16.5 16.7006 16.7634 16.2317 17.2322L16.9389 17.9393ZM21.4995 13C21.4995 14.1162 21.2797 15.2215 20.8525 16.2528L21.7764 16.6355C22.2538 15.4829 22.4995 14.2475 22.4995 13H21.4995ZM19.0099 19.0104C18.2206 19.7997 17.2836 20.4258 16.2523 20.853L16.635 21.7768C17.7876 21.2994 18.8349 20.5996 19.717 19.7175L19.0099 19.0104ZM12.9995 21.5C11.8833 21.5 10.778 21.2801 9.7467 20.853L9.36402 21.7768C10.5166 22.2543 11.752 22.5 12.9995 22.5V21.5ZM9.7467 20.853C8.71544 20.4258 7.7784 19.7997 6.9891 19.0104L6.282 19.7175C7.16415 20.5996 8.21142 21.2994 9.36402 21.7768L9.7467 20.853ZM6.9891 19.0104C6.19981 18.2211 5.5737 17.284 5.14654 16.2528L4.22266 16.6355C4.70008 17.7881 5.39984 18.8353 6.282 19.7175L6.9891 19.0104ZM5.14654 16.2528C4.71937 15.2215 4.49951 14.1162 4.49951 13H3.49951C3.49951 14.2475 3.74524 15.4829 4.22266 16.6355L5.14654 16.2528ZM4.49951 13C4.49951 10.7456 5.39504 8.58362 6.9891 6.98956L6.282 6.28246C4.5004 8.06405 3.49951 10.4804 3.49951 13H4.49951ZM21.0618 8.49997H19.9995V9.49997H21.0618V8.49997ZM9.49951 6.49997V4.93771H8.49951V6.49997H9.49951ZM8.7773 4.4898C7.8622 4.94379 7.01793 5.54653 6.282 6.28246L6.9891 6.98956C7.64759 6.33108 8.40295 5.79181 9.22172 5.38561L8.7773 4.4898ZM8.49951 4.93497V4.93771H9.49951V4.93497H8.49951ZM22.4995 13C22.4995 11.5212 22.1547 10.0779 21.5097 8.77776L20.6139 9.22218C21.191 10.3856 21.4995 11.6769 21.4995 13H22.4995ZM21.0618 9.49997H21.0635V8.49997H21.0618V9.49997ZM9.24838 5.36863C9.88424 5.00372 10.8338 4.68993 11.9478 4.56522L11.8365 3.57142C10.6135 3.70834 9.52687 4.05584 8.75064 4.50131L9.24838 5.36863ZM3.55761 11.9444C3.51854 12.294 3.49951 12.6463 3.49951 13H4.49951C4.49951 12.6822 4.51661 12.3669 4.55142 12.0555L3.55761 11.9444ZM9.36402 21.7768C10.1899 22.1189 11.0585 22.3429 11.944 22.4419L12.0551 21.4481C11.2633 21.3596 10.4861 21.1592 9.7467 20.853L9.36402 21.7768ZM15.4995 19V21.4853H16.4995V19H15.4995ZM16.1662 21.9567C16.3238 21.9009 16.4802 21.841 16.635 21.7768L16.2523 20.853C16.1138 20.9103 15.9739 20.964 15.8328 21.0139L16.1662 21.9567ZM19.717 19.7175C20.447 18.9875 21.0521 18.1444 21.5097 17.2222L20.6139 16.7777C20.2045 17.6029 19.6631 18.3572 19.0099 19.0104L19.717 19.7175ZM21.0618 16.5H17.9995V17.5H21.0618V16.5ZM21.0618 17.5H21.0635V16.5H21.0618V17.5ZM15.8328 21.0139C14.9239 21.3352 13.9658 21.5 12.9995 21.5V22.5C14.0795 22.5 15.1503 22.3158 16.1662 21.9567L15.8328 21.0139ZM20.8525 16.2528C20.7788 16.4307 20.6992 16.6057 20.6139 16.7777L21.5097 17.2222C21.6051 17.03 21.694 16.8343 21.7764 16.6355L20.8525 16.2528ZM16.4995 21.488V21.4853H15.4995V21.488H16.4995ZM11.944 22.4419C12.2945 22.4811 12.6469 22.5 12.9995 22.5V21.5C12.6826 21.5 12.3673 21.483 12.0551 21.4481L11.944 22.4419ZM6.282 6.28246C4.75106 7.8134 3.79583 9.81313 3.55761 11.9444L4.55142 12.0555C4.76454 10.1488 5.61919 8.35948 6.9891 6.98956L6.282 6.28246ZM21.5031 8.76499C21.4946 8.74895 21.486 8.7329 21.4773 8.71683L20.5979 9.19304C20.6056 9.20712 20.6131 9.22109 20.6204 9.23495L21.5031 8.76499ZM21.4704 8.70462C21.0982 8.06095 20.6941 7.49024 20.2675 6.98544L19.5037 7.63087C19.8912 8.08946 20.2614 8.61156 20.6048 9.20525L21.4704 8.70462ZM20.2642 6.98155C19.4367 6.02229 18.3161 5.05711 16.9259 4.38719L16.4918 5.28805C17.7354 5.88736 18.7507 6.75808 19.507 7.63476L20.2642 6.98155ZM16.9231 4.38583C16.2685 4.07548 15.6203 3.85913 15.0049 3.71558L14.7777 4.68943C15.3281 4.81782 15.9085 5.01147 16.4946 5.28941L16.9231 4.38583ZM15.0007 3.71461C13.2197 3.31547 11.1538 3.44081 8.85394 4.45261L9.25663 5.36794C11.3712 4.43767 13.2197 4.34028 14.782 4.6904L15.0007 3.71461ZM8.83617 4.46084C8.81652 4.47043 8.79689 4.48008 8.7773 4.4898L9.22172 5.38561C9.23925 5.37692 9.25681 5.36828 9.2744 5.3597L8.83617 4.46084ZM9.2744 5.35971C10.114 4.95038 11.019 4.68038 11.9537 4.56452L11.8307 3.57212C10.786 3.70162 9.77447 4.00339 8.83617 4.46084L9.2744 5.35971ZM11.9837 4.55987C12.6247 4.44048 13.63 4.42171 14.7777 4.68943L15.0049 3.71558C13.7315 3.41854 12.5863 3.43044 11.8006 3.57677L11.9837 4.55987ZM16.4946 5.28941C17.519 5.77511 18.5649 6.51987 19.5037 7.63087L20.2675 6.98544C19.2319 5.75987 18.0696 4.92946 16.9231 4.38583L16.4946 5.28941ZM20.6048 9.20525C20.6131 9.21963 20.6214 9.23404 20.6296 9.24848L21.4974 8.75146C21.4884 8.7358 21.4794 8.72018 21.4704 8.70462L20.6048 9.20525ZM21.4772 8.71682C21.1869 8.18066 20.78 7.57941 20.2642 6.98155L19.507 7.63476C19.9777 8.18038 20.3431 8.72261 20.5979 9.19305L21.4772 8.71682ZM16.9259 4.38719C16.3327 4.10133 15.6901 3.86913 15.0007 3.71461L14.782 4.6904C15.3919 4.82709 15.9624 5.03292 16.4918 5.28805L16.9259 4.38719ZM8.85394 4.45261C8.83464 4.4611 8.81532 4.46965 8.79598 4.47827L9.20304 5.39167C9.22093 5.3837 9.23879 5.37579 9.25663 5.36794L8.85394 4.45261Z" fill="white"/>
</svg>
