<svg viewBox="0 0 35 35" fill="none" xmlns="http://www.w3.org/2000/svg">
<circle cx="17.5" cy="17.5" r="17.5" fill="#4599EF" fill-opacity="0.1"/>
<path d="M16.0415 11.6666L17.4998 12.3958L18.9582 11.6666M17.4998 10.2083V14.9479L19.6873 16.2021" stroke="#4599EF" stroke-width="1.3125" stroke-linecap="round" stroke-linejoin="round"/>
<path d="M21.8225 13.3204L21.9202 14.9479L23.2808 15.8463M23.8146 13.8542L19.71 16.224L19.7176 18.7455" stroke="#4599EF" stroke-width="1.3125" stroke-linecap="round" stroke-linejoin="round"/>
<path d="M23.281 19.1537L21.9203 20.0521L21.8227 21.6796M23.8148 21.1459L19.7102 18.7761L17.5303 20.0434" stroke="#4599EF" stroke-width="1.3125" stroke-linecap="round" stroke-linejoin="round"/>
<path d="M18.9585 23.3334L17.5002 22.6042L16.0418 23.3334M17.5002 24.7917V20.0521L15.3127 18.7979" stroke="#4599EF" stroke-width="1.3125" stroke-linecap="round" stroke-linejoin="round"/>
<path d="M13.1775 21.6796L13.0798 20.0521L11.7192 19.1537M11.1854 21.1458L15.29 18.776L15.2824 16.2545" stroke="#4599EF" stroke-width="1.3125" stroke-linecap="round" stroke-linejoin="round"/>
<path d="M11.719 15.8463L13.0797 14.9479L13.1773 13.3204M11.1852 13.8541L15.2898 16.2239L17.4697 14.9566" stroke="#4599EF" stroke-width="1.3125" stroke-linecap="round" stroke-linejoin="round"/>
</svg>
