<svg width="113" height="113" viewBox="0 0 113 113" fill="none" xmlns="http://www.w3.org/2000/svg">
    <path d="M42.375 56.5L51.7917 65.9167L70.625 47.0833M98.875 56.5C98.875 62.0648 97.7789 67.575 95.6494 72.7162C93.5199 77.8574 90.3985 82.5288 86.4636 86.4636C82.5288 90.3985 77.8574 93.5199 72.7162 95.6494C67.575 97.7789 62.0648 98.875 56.5 98.875C50.9352 98.875 45.425 97.7789 40.2838 95.6494C35.1426 93.5199 30.4712 90.3985 26.5363 86.4636C22.6015 82.5288 19.4801 77.8574 17.3506 72.7162C15.2211 67.575 14.125 62.0648 14.125 56.5C14.125 45.2615 18.5895 34.4832 26.5363 26.5364C34.4832 18.5895 45.2615 14.125 56.5 14.125C67.7385 14.125 78.5168 18.5895 86.4636 26.5364C94.4105 34.4832 98.875 45.2615 98.875 56.5Z" stroke="#0BF059" stroke-width="3" stroke-linecap="round" stroke-linejoin="round"/>
</svg>
