<svg viewBox="0 0 20 19" fill="none" xmlns="http://www.w3.org/2000/svg">
<rect x="0.5" width="19" height="19" rx="9.5" fill="white"/>
<path d="M14.2646 5.02953C13.9137 5.02982 13.5772 5.17711 13.329 5.43904C13.0809 5.70098 12.9413 6.05615 12.9411 6.42659C12.9411 6.62609 12.9824 6.81553 13.0544 6.9882L12.0194 8.21706C11.6678 7.96088 11.2506 7.82367 10.8234 7.82364C10.4317 7.82364 10.0695 7.94435 9.75453 8.13994L8.55065 6.86973L8.53847 6.88259C8.64224 6.66017 8.70577 6.41262 8.70577 6.14717C8.70577 5.8156 8.61262 5.49147 8.4381 5.21578C8.26358 4.94008 8.01554 4.72521 7.72532 4.59832C7.43511 4.47143 7.11577 4.43823 6.80768 4.50292C6.4996 4.5676 6.2166 4.72727 5.99448 4.96173C5.77236 5.19619 5.6211 5.49491 5.55982 5.82011C5.49853 6.14531 5.52999 6.4824 5.65019 6.78873C5.7704 7.09507 5.97397 7.3569 6.23516 7.54111C6.49634 7.72532 6.80341 7.82364 7.11753 7.82364C7.369 7.82364 7.603 7.75659 7.81424 7.64706L7.80206 7.65991L9.00594 8.93011C8.81146 9.27101 8.70775 9.661 8.70577 10.0589C8.70577 10.6161 8.90694 11.1201 9.22724 11.5124L7.86294 12.952C7.71003 12.8874 7.54694 12.8538 7.38224 12.8531C6.65271 12.8531 6.05871 13.4795 6.05871 14.2501C6.05871 15.0207 6.65271 15.6472 7.38224 15.6472C8.11177 15.6472 8.70577 15.0207 8.70577 14.2501C8.70577 14.0707 8.67083 13.9003 8.61206 13.7421L10.1145 12.1562C10.3374 12.24 10.5735 12.2942 10.8234 12.2942C11.9913 12.2942 12.9411 11.2917 12.9411 10.0589C12.9411 9.70353 12.8548 9.37214 12.7145 9.07317L13.8352 7.7415C13.9708 7.79067 14.1137 7.82364 14.2646 7.82364C14.9946 7.82364 15.5881 7.1972 15.5881 6.42659C15.5881 5.65597 14.9946 5.02953 14.2646 5.02953ZM10.8234 11.1766C10.2395 11.1766 9.76459 10.6753 9.76459 10.0589C9.76459 9.44256 10.2395 8.94129 10.8234 8.94129C11.4074 8.94129 11.8822 9.44256 11.8822 10.0589C11.8822 10.6753 11.4074 11.1766 10.8234 11.1766Z" fill="#242526"/>
</svg>
