<svg viewBox="0 0 24 24" fill="none" xmlns="http://www.w3.org/2000/svg">
<path d="M13.0032 9C13.0032 10.1055 10.7642 11.0008 8.00208 11.0008C5.23893 11.0008 3 10.1055 3 9" stroke="white" stroke-width="1.5" stroke-linecap="round" stroke-linejoin="round"/>
<path d="M8.00108 15.0008C5.23893 15.0008 3 14.1055 3 13" stroke="white" stroke-width="1.5" stroke-linecap="round" stroke-linejoin="round"/>
<path d="M12.9997 5H13.0007V11.0025" stroke="white" stroke-width="1.5" stroke-linecap="round" stroke-linejoin="round"/>
<path d="M21.0012 15.0008C21.0032 13.8954 18.7622 13 16.0011 13C13.2399 13 10.999 13.8954 11 15.0008C11 16.1063 13.2389 17.0017 16.0021 17.0017C18.7652 17.0017 21.0042 16.1063 21.0042 15.0008" stroke="white" stroke-width="1.5" stroke-linecap="round" stroke-linejoin="round"/>
<path d="M21.0032 15.0039V19.0056C21.0032 20.111 18.7642 21.0064 16.0021 21.0064C13.2389 21.0064 11 20.111 11 19.0056V15.0039" stroke="white" stroke-width="1.5" stroke-linecap="round" stroke-linejoin="round"/>
<path d="M7.99818 19.0047C5.23603 19.0047 2.99609 18.1094 2.99609 17.0039" stroke="white" stroke-width="1.5" stroke-linecap="round" stroke-linejoin="round"/>
<ellipse cx="7.99818" cy="4.99693" rx="5.00208" ry="2.00083" stroke="white" stroke-width="1.5" stroke-linecap="round" stroke-linejoin="round"/>
<path d="M2.9963 5V17.005" stroke="white" stroke-width="1.5" stroke-linecap="round" stroke-linejoin="round"/>
<path d="M18.0041 5V10.0021" stroke="white" stroke-width="1.5" stroke-linecap="round" stroke-linejoin="round"/>
<path d="M20.0056 7.00083L18.0047 5L16.0039 7.00083" stroke="white" stroke-width="1.5" stroke-linecap="round" stroke-linejoin="round"/>
</svg>
