<svg viewBox="0 0 22 31" fill="none" xmlns="http://www.w3.org/2000/svg">
<g clip-path="url(#clip0_847_22391)">
<rect x="0.0964912" y="0.0964912" width="21.807" height="30.1053" rx="2.79825" fill="#1D1D1D" stroke="url(#paint0_linear_847_22391)" stroke-width="0.192982"/>
<path opacity="0.45" fill-rule="evenodd" clip-rule="evenodd" d="M17.0289 4.57805C15.81 4.98328 14.6465 5.37006 13.1239 5.37006C11.8888 5.37006 11.0589 4.9917 10.1807 4.59135C9.19414 4.14158 8.14669 3.66406 6.39554 3.66406C4.50518 3.66406 3.35934 4.22052 2.37648 4.69782C1.6384 5.05626 0.992222 5.37006 0.191675 5.37006V8.87351H0.191406V25.663C0.191406 27.2842 0.191406 28.0948 0.506914 28.714C0.784442 29.2587 1.22728 29.7015 1.77196 29.9791C2.39118 30.2946 3.20178 30.2946 4.82299 30.2946H17.1739C18.7951 30.2946 19.6057 30.2946 20.2249 29.9791C20.7696 29.7015 21.2124 29.2587 21.4899 28.714C21.8054 28.0948 21.8054 27.2842 21.8054 25.663V8.87459H21.8057V3.66406C19.7781 3.66406 18.3699 4.13222 17.0289 4.57805Z" fill="url(#paint1_linear_847_22391)"/>
<path fill-rule="evenodd" clip-rule="evenodd" d="M4.96826 5.83976C6.18716 6.29002 7.35057 6.71977 8.87319 6.71977C10.1083 6.71977 10.9382 6.29937 11.8164 5.85453C12.803 5.3548 13.8504 4.82422 15.6016 4.82422C17.4919 4.82422 18.6378 5.4425 19.6206 5.97284C20.3587 6.3711 21.0049 6.71977 21.8054 6.71977V10.6137H0.191406V4.82422C2.21904 4.82422 3.62724 5.3444 4.96826 5.83976ZM21.8054 10.6148H0.191406V25.6674C0.191406 27.2886 0.191406 28.0992 0.506914 28.7184C0.784442 29.2631 1.22728 29.7059 1.77196 29.9835C2.39118 30.299 3.20178 30.299 4.82299 30.299H17.1739C18.7951 30.299 19.6057 30.299 20.2249 29.9835C20.7696 29.7059 21.2124 29.2631 21.4899 28.7184C21.8054 28.0992 21.8054 27.2886 21.8054 25.6674V10.6148Z" fill="url(#paint2_linear_847_22391)"/>
</g>
<defs>
<linearGradient id="paint0_linear_847_22391" x1="10.0332" y1="-2.2892" x2="43.8969" y2="15.6399" gradientUnits="userSpaceOnUse">
<stop stop-color="#8000FF"/>
<stop offset="1" stop-color="#F0B90B"/>
</linearGradient>
<linearGradient id="paint1_linear_847_22391" x1="10.0487" y1="1.65198" x2="41.5959" y2="20.3218" gradientUnits="userSpaceOnUse">
<stop stop-color="#8000FF"/>
<stop offset="1" stop-color="#F0B90B"/>
</linearGradient>
<linearGradient id="paint2_linear_847_22391" x1="10.0486" y1="2.89946" x2="40.8541" y2="21.9573" gradientUnits="userSpaceOnUse">
<stop stop-color="#8000FF"/>
<stop offset="1" stop-color="#F0B90B"/>
</linearGradient>
<clipPath id="clip0_847_22391">
<rect width="22" height="30.2982" fill="white"/>
</clipPath>
</defs>
</svg>
