<svg width="15" height="14" viewBox="0 0 15 14" fill="none" xmlns="http://www.w3.org/2000/svg">
    <g clip-path="url(#clip0_2141_30362)">
        <path fill-rule="evenodd" clip-rule="evenodd" d="M5.3949 2.30509C5.52613 2.43636 5.59985 2.61438 5.59985 2.79999C5.59985 2.98561 5.52613 3.16362 5.3949 3.29489L3.7898 4.89999H7.7C8.99956 4.89999 10.2459 5.41624 11.1648 6.33517C12.0837 7.2541 12.6 8.50043 12.6 9.79999V11.2C12.6 11.3856 12.5262 11.5637 12.395 11.695C12.2637 11.8262 12.0856 11.9 11.9 11.9C11.7143 11.9 11.5363 11.8262 11.405 11.695C11.2737 11.5637 11.2 11.3856 11.2 11.2V9.79999C11.2 8.87174 10.8312 7.9815 10.1749 7.32512C9.51849 6.66874 8.62825 6.29999 7.7 6.29999H3.7898L5.3949 7.90509C5.46175 7.96967 5.51508 8.04691 5.55177 8.13231C5.58845 8.21771 5.60776 8.30957 5.60857 8.40251C5.60938 8.49546 5.59167 8.58763 5.55647 8.67366C5.52128 8.75969 5.4693 8.83785 5.40357 8.90357C5.33785 8.9693 5.25969 9.02127 5.17366 9.05647C5.08764 9.09167 4.99546 9.10938 4.90252 9.10857C4.80957 9.10776 4.71772 9.08845 4.63231 9.05176C4.54691 9.01508 4.46967 8.96175 4.4051 8.89489L1.6051 6.09489C1.47387 5.96362 1.40015 5.78561 1.40015 5.59999C1.40015 5.41438 1.47387 5.23636 1.6051 5.10509L4.4051 2.30509C4.53637 2.17386 4.71438 2.10014 4.9 2.10014C5.08561 2.10014 5.26363 2.17386 5.3949 2.30509Z" fill="white"/>
    </g>
    <defs>
        <clipPath id="clip0_2141_30362">
            <rect width="14" height="14" fill="white" transform="translate(0.5)"/>
        </clipPath>
    </defs>
</svg>
