<svg viewBox="0 0 13 12" fill="none" xmlns="http://www.w3.org/2000/svg">
<path d="M1.10693 12C0.974325 12 0.847148 11.9548 0.75338 11.8745C0.659612 11.7941 0.606934 11.6851 0.606934 11.5714V0.967768C0.606969 0.855478 0.641319 0.745154 0.706564 0.647781C0.771809 0.550407 0.865672 0.469381 0.978809 0.412768C1.35693 0.224464 2.11881 0 3.60693 0C4.76975 0 6.07037 0.394018 7.21787 0.741429C8.14193 1.02134 9.01475 1.28571 9.60693 1.28571C10.3693 1.28371 11.1235 1.15168 11.8257 0.897322C11.9112 0.866383 12.0043 0.854062 12.0967 0.861457C12.1891 0.868852 12.278 0.895733 12.3553 0.939703C12.4327 0.983674 12.4961 1.04337 12.54 1.11346C12.5839 1.18356 12.6069 1.26187 12.6069 1.34143V7.21714C12.6068 7.32129 12.5713 7.42314 12.5047 7.51025C12.4381 7.59735 12.3433 7.66593 12.2319 7.70759C11.9597 7.80964 10.966 8.14286 9.60693 8.14286C8.85256 8.14286 7.90756 7.95161 6.90725 7.74884C5.78287 7.52116 4.62037 7.28571 3.60693 7.28571C2.45475 7.28571 1.86506 7.43518 1.60693 7.52973V11.5714C1.60693 11.6851 1.55426 11.7941 1.46049 11.8745C1.36672 11.9548 1.23954 12 1.10693 12Z" fill="#2FB685"/>
<path d="M7.41487 4.23348L7.41514 4.23351L6.84178 3.5127L6.30905 3.93637L6.24784 3.98508L6.12161 4.08552L6.12061 4.0863L6.12141 4.08733L6.6943 4.8076L7.41511 4.23419L7.41547 4.23387L7.41492 4.23348" fill="white"/>
<path d="M5.68396 3.65968L6.83346 2.60502L7.88862 3.75502L8.55746 3.14137L6.88864 1.32253L5.07035 2.9908L5.68398 3.65964L5.68396 3.65968ZM3.92918 4.03781L4.59805 3.42405L5.21168 4.09286L4.54282 4.70654L3.92918 4.03781ZM5.64499 4.56535L6.69965 5.71478L7.84967 4.65969L8.46368 5.3282L8.46335 5.32853L6.64447 6.99727L4.9762 5.17898L4.97533 5.17803L5.64506 4.56528L5.64499 4.56535ZM8.32143 4.22708L8.99029 3.6134L9.60392 4.28221L8.93508 4.89589L8.32143 4.22708Z" fill="white"/>
</svg>
