<svg width="44" height="44" viewBox="0 0 44 44" fill="none" xmlns="http://www.w3.org/2000/svg">
    <circle cx="22" cy="22" r="22" fill="#2DD7FF" fill-opacity="0.1"/>
    <path d="M27.8334 22V27.8333C27.8334 28.2754 27.6578 28.6993 27.3452 29.0118C27.0326 29.3244 26.6087 29.5 26.1667 29.5H17.8334C17.3913 29.5 16.9674 29.3244 16.6548 29.0118C16.3423 28.6993 16.1667 28.2754 16.1667 27.8333V22" fill="#2DD7FF" fill-opacity="0.5"/>
    <path d="M27.8334 22V27.8333C27.8334 28.2754 27.6578 28.6993 27.3452 29.0118C27.0326 29.3244 26.6087 29.5 26.1667 29.5H17.8334C17.3913 29.5 16.9674 29.3244 16.6548 29.0118C16.3423 28.6993 16.1667 28.2754 16.1667 27.8333V22" stroke="#2DD7FF" stroke-linecap="round" stroke-linejoin="round"/>
    <path d="M28.6667 18.6667H15.3333C14.8731 18.6667 14.5 19.0398 14.5 19.5V21.1667C14.5 21.6269 14.8731 22 15.3333 22H28.6667C29.1269 22 29.5 21.6269 29.5 21.1667V19.5C29.5 19.0398 29.1269 18.6667 28.6667 18.6667Z" fill="#2DD7FF" stroke="#2DD7FF" stroke-linecap="round" stroke-linejoin="round"/>
    <path d="M18.25 18.6667C17.6975 18.6667 17.1676 18.4472 16.7769 18.0565C16.3862 17.6658 16.1667 17.1359 16.1667 16.5833C16.1667 16.0308 16.3862 15.5009 16.7769 15.1102C17.1676 14.7195 17.6975 14.5 18.25 14.5C19.0539 14.486 19.8417 14.876 20.5106 15.6193C21.1796 16.3625 21.6986 17.4245 22 18.6667C22.3015 17.4245 22.8205 16.3625 23.4894 15.6193C24.1583 14.876 24.9461 14.486 25.75 14.5C26.3026 14.5 26.8325 14.7195 27.2232 15.1102C27.6139 15.5009 27.8334 16.0308 27.8334 16.5833C27.8334 17.1359 27.6139 17.6658 27.2232 18.0565C26.8325 18.4472 26.3026 18.6667 25.75 18.6667" stroke="#2DD7FF" stroke-linecap="round" stroke-linejoin="round"/>
    <path d="M22 18.6667V29.5" stroke="#2DD7FF" stroke-linecap="round" stroke-linejoin="round"/>
</svg>
