<svg width="6" height="6" viewBox="0 0 6 6" fill="none" xmlns="http://www.w3.org/2000/svg">
<path d="M4.37598 1.73828C4.44393 1.73828 4.49902 1.68319 4.49902 1.61523V1.12305C4.49902 1.05509 4.44393 1 4.37598 1H1.42285C1.37629 1 1.33372 1.02628 1.31285 1.06791C1.29199 1.10953 1.2964 1.15937 1.32427 1.19667L2.74584 3.1L1.32427 5.00332C1.29641 5.04062 1.29199 5.09046 1.31285 5.13209C1.33372 5.17372 1.37629 5.2 1.42285 5.2H4.37598C4.44393 5.2 4.49902 5.14491 4.49902 5.07695V4.58477C4.49902 4.51681 4.44393 4.46172 4.37598 4.46172C4.30802 4.46172 4.25293 4.51681 4.25293 4.58477V4.95391H1.66833L2.998 3.17363C3.03062 3.12997 3.03062 3.07004 2.998 3.02638L1.66833 1.24609H4.25293V1.61523C4.25293 1.68319 4.30802 1.73828 4.37598 1.73828Z" fill="white" stroke="white" stroke-width="0.2"/>
</svg>
