<svg viewBox="0 0 14 14" fill="none" xmlns="http://www.w3.org/2000/svg">
<path d="M6.99998 11.9C9.70617 11.9 11.9 9.70623 11.9 7.00004C11.9 4.29384 9.70617 2.10004 6.99998 2.10004C4.29378 2.10004 2.09998 4.29384 2.09998 7.00004C2.09998 9.70623 4.29378 11.9 6.99998 11.9Z" fill="#F0B90B" fill-opacity="0.2" stroke="#F0B90B" stroke-width="0.6" stroke-linecap="round" stroke-linejoin="round"/>
<path d="M7.00002 9.09996C8.15982 9.09996 9.10002 8.15976 9.10002 6.99996C9.10002 5.84017 8.15982 4.89996 7.00002 4.89996C5.84023 4.89996 4.90002 5.84017 4.90002 6.99996C4.90002 8.15976 5.84023 9.09996 7.00002 9.09996Z" fill="#F0B90B"/>
<path d="M7 0.700012V2.10001" stroke="#F0B90B" stroke-width="0.6" stroke-linecap="round" stroke-linejoin="round"/>
<path d="M7 11.9V13.3" stroke="#F0B90B" stroke-width="0.6" stroke-linecap="round" stroke-linejoin="round"/>
<path d="M11.9 7H13.3" stroke="#F0B90B" stroke-width="0.6" stroke-linecap="round" stroke-linejoin="round"/>
<path d="M0.700012 7H2.10001" stroke="#F0B90B" stroke-width="0.6" stroke-linecap="round" stroke-linejoin="round"/>
</svg>
