<svg version="1.1" x="0px" y="0px" stroke="none" viewBox="0 0 512 512">
<style type="text/css">
	.st0{display:none;}
	.st1{display:inline;opacity:0.4;}
	.st2{fill:none;stroke-width:15;stroke-miterlimit:10;}
	.st3{fill:none;stroke-width:15;stroke-linecap:round;stroke-linejoin:round;stroke-miterlimit:10;}
</style>
<g id="Layer_1" class="st0">
	<g class="st1">
		<path d="M409.7,136.2l11.4-11.4l11.3,11.3c3.1,3.1,8.2,3.1,11.3,0c0,0,0,0,0,0l17-17c3.1-3.1,3.1-8.2,0-11.3l-56.6-56.6
			c-3.1-3.1-8.2-3.1-11.3,0l-17,17c-3.1,3.1-3.1,8.2,0,11.3c0,0,0,0,0,0l11.3,11.3l-15,15c-27.8-17.8-59.4-29-92.2-32.5V56h24
			c4.4,0,8-3.6,8-8V16c0-4.4-3.6-8-8-8h-96c-4.4,0-8,3.6-8,8v32c0,4.4,3.6,8,8,8h24v17.3C113.4,86.6,28.1,193.5,41.3,312
			c5.4,48.7,27.3,94.1,61.9,128.7c84.5,84.2,221.3,84,305.5-0.5C492.4,356.3,492.8,220.7,409.7,136.2z M398.5,68.2l45.3,45.3
			l-5.7,5.7l-45.2-45.2L398.5,68.2z M398.5,102.2l11.3,11.3L398,125.3c-4.1-3.5-8.2-6.9-12.5-10.1L398.5,102.2z M216,40V24h80v16
			H216z M264,56v16h-16V56H264z M256,488c-110.3,0-200-89.7-200-200S145.7,88,256,88s200,89.7,200,200S366.3,488,256,488z"/>
		<path d="M256,120c-92.6,0-168,75.4-168,168s75.4,168,168,168s168-75.4,168-168S348.6,120,256,120z M256,440
			c-83.8,0-152-68.2-152-152s68.2-152,152-152s152,68.2,152,152S339.8,440,256,440z"/>
		<path d="M263.9,257c0-0.3,0.1-0.7,0.1-1v-48c0-4.4-3.6-8-8-8s-8,3.6-8,8v48c0,0.3,0,0.7,0.1,1c-17.1,4.4-27.5,21.8-23.1,38.9
			c4.4,17.1,21.8,27.5,38.9,23.1c17.1-4.4,27.5-21.8,23.1-38.9C284.1,268.7,275.3,259.9,263.9,257z M256,304c-8.8,0-16-7.2-16-16
			s7.2-16,16-16c8.8,0,16,7.2,16,16C272,296.8,264.8,304,256,304z"/>
		<circle cx="256" cy="152" r="8"/>
		<circle cx="256" cy="424" r="8"/>
		<circle cx="392" cy="288" r="8"/>
		<circle cx="120" cy="288" r="8"/>
	</g>
</g>
<g id="Layer_2">
	<circle class="st2" cx="256" cy="288" r="23.8"/>
	<circle class="st2" cx="392.2" cy="288" r="0.5"/>
	<circle class="st2" cx="120.2" cy="288" r="0.5"/>
	<circle class="st2" cx="256" cy="424" r="0.5"/>
	<circle class="st2" cx="256" cy="152" r="0.5"/>
	<circle class="st2" cx="256" cy="288" r="160"/>
	<circle class="st2" cx="256" cy="288" r="207.9"/>
	<line class="st3" x1="256" y1="261.9" x2="256" y2="207.1"/>
	<g>
		<rect x="207.7" y="15.8" class="st3" width="96.6" height="32.3"/>
		<g>
			<line class="st3" x1="271.8" y1="50.9" x2="271.8" y2="77.2"/>
			<line class="st3" x1="240.2" y1="50.9" x2="240.2" y2="77.6"/>
		</g>
	</g>
	<g>
		
			<rect x="377" y="82.3" transform="matrix(0.7043 0.7099 -0.7099 0.7043 190.0416 -269.3686)" class="st3" width="82.6" height="22.3"/>
		<g>
			<line class="st3" x1="419.6" y1="114.4" x2="401.7" y2="132.5"/>
			<line class="st3" x1="397.4" y1="92" x2="378.4" y2="110.8"/>
		</g>
	</g>
</g>
</svg>
