<svg preserveAspectRatio="xMidYMid slice" viewBox="0 0 88 88" fill="none" xmlns="http://www.w3.org/2000/svg">
    <path d="M39.0358 13C40.5754 10.3333 44.4244 10.3333 45.964 13L74.1098 61.75C75.6494 64.4167 73.7249 67.75 70.6457 67.75H14.3541C11.2749 67.75 9.3504 64.4167 10.89 61.75L39.0358 13Z" fill="#E1444D" fill-opacity="0.2" stroke="#E1444D" stroke-width="2"/>
    <path d="M44.838 32.3808C44.838 32.97 44.6389 34.9416 44.2342 38.2961C43.8356 41.6564 43.4806 44.9027 43.1757 48.0347H41.756C41.4881 44.9028 41.1583 41.6565 40.7597 38.2961C40.3673 34.9416 40.1682 32.97 40.1682 32.3808C40.1682 31.7134 40.386 31.1485 40.822 30.6914C41.2641 30.2284 41.8183 30 42.5031 30C43.1818 30 43.742 30.2284 44.178 30.6792C44.6201 31.1301 44.838 31.7015 44.838 32.3808ZM45 53.6196C45 54.2749 44.7573 54.8401 44.2651 55.3027C43.7672 55.7657 43.1818 56 42.5031 56C41.8183 56 41.2329 55.7657 40.741 55.3027C40.2491 54.8397 40 54.2748 40 53.6196C40 52.9644 40.2492 52.3933 40.741 51.9184C41.2328 51.4435 41.8183 51.2089 42.5031 51.2089C43.1817 51.2089 43.7672 51.4432 44.2651 51.9184C44.757 52.3932 45 52.9643 45 53.6196Z" fill="#E1444D"/>
</svg>
