<svg width="24" height="24" viewBox="0 0 24 24" fill="none" xmlns="http://www.w3.org/2000/svg">
    <path d="M13.3416 3.80132L21.1056 19.3292C21.6042 20.3265 20.879 21.5 19.7639 21.5H4.23607C3.121 21.5 2.39575 20.3265 2.89443 19.3292L10.6584 3.80132C11.2111 2.69574 12.7889 2.69574 13.3416 3.80132Z" fill="#E1B544" fill-opacity="0.2" stroke="#F0B90B"/>
    <path d="M12.9352 9.82413C12.9352 10.0281 12.8556 10.7106 12.6937 11.8717C12.5342 13.0349 12.3922 14.1586 12.2703 15.2428H11.7024C11.5952 14.1587 11.4633 13.0349 11.3039 11.8717C11.1469 10.7106 11.0673 10.0281 11.0673 9.82413C11.0673 9.5931 11.1544 9.39757 11.3288 9.23933C11.5057 9.07905 11.7273 9 12.0012 9C12.2727 9 12.4968 9.07905 12.6712 9.23512C12.8481 9.39118 12.9352 9.58899 12.9352 9.82413ZM13 17.176C13 17.4028 12.9029 17.5985 12.7061 17.7586C12.5069 17.9189 12.2727 18 12.0012 18C11.7273 18 11.4931 17.9189 11.2964 17.7586C11.0996 17.5984 11 17.4028 11 17.176C11 16.9492 11.0997 16.7515 11.2964 16.5871C11.4931 16.4227 11.7273 16.3415 12.0012 16.3415C12.2727 16.3415 12.5069 16.4226 12.7061 16.5871C12.9028 16.7515 13 16.9492 13 17.176Z" fill="#F0B90B"/>
</svg>
