<svg xmlns="http://www.w3.org/2000/svg" xmlns:xlink="http://www.w3.org/1999/xlink" viewBox="0 0 71 71"><defs>
    <style>.cls-1{fill:none;}.cls-2{fill:#18191a;}.cls-3{clip-path:url(#clip-path);}.cls-4{opacity:0.45;}.cls-5{fill:url(#linear-gradient);}.cls-6{fill:url(#linear-gradient-2);}.cls-7{fill:url(#radial-gradient);}</style>
    <clipPath id="clip-path"><circle class="cls-1" cx="35.5" cy="35.5" r="35.5"/></clipPath>
    <linearGradient id="linear-gradient" x1="10.98" y1="19.8" x2="82.54" y2="76.83" gradientUnits="userSpaceOnUse">
        <stop offset="0" stop-color="#8000ff"/>
        <stop offset="1" stop-color="#f0850b"/>
    </linearGradient><linearGradient id="linear-gradient-2" x1="5.26" y1="57.95" x2="96.8" y2="45.78" xlink:href="#linear-gradient"/>
    <radialGradient id="radial-gradient" cx="-1927.95" cy="-45.1" r="1" gradientTransform="matrix(-0.34, 43.43, -43.43, -0.34, -2587.6, 83745.29)" gradientUnits="userSpaceOnUse">
        <stop offset="0.67" stop-color="#fff" stop-opacity="0"/><stop offset="1" stop-color="#fff" stop-opacity="0.2"/></radialGradient></defs><g id="Layer_2">
    <circle class="cls-2" cx="35.5" cy="35.5" r="35.5"/><g class="cls-3"><g class="cls-4"><path class="cls-5" d="M43.4,35.2c11.7,0,17.6-3.6,31.8-3.6V45.5a3.59,3.59,0,0,1-3.6,3.6H-.4A3.59,3.59,0,0,1-4,45.5V35.1c6.8,0,10.6-3.6,22.7-3.6S33.8,35.2,43.4,35.2Z"/></g></g><g class="cls-3">
    <path class="cls-6" d="M27.8,38.9c-11.7,0-17.6-5.1-31.8-5.1V70.9A3.59,3.59,0,0,0-.4,74.5H71.5a3.59,3.59,0,0,0,3.6-3.6v-32c-6.8,0-10.6-5.1-22.7-5.1S37.4,38.9,27.8,38.9Z"/></g><circle class="cls-7" cx="35.5" cy="35.5" r="35.5"/>
</g></svg>