<svg viewBox="0 0 15 12" fill="none" xmlns="http://www.w3.org/2000/svg">
<path fill-rule="evenodd" clip-rule="evenodd" d="M14.747 1.42258C14.1947 1.66669 13.6094 1.82776 13.01 1.90058C13.6418 1.52199 14.1144 0.926717 14.34 0.225581C13.756 0.572581 13.11 0.82558 12.419 0.95958C11.9636 0.472364 11.3599 0.149264 10.7019 0.0405076C10.0439 -0.0682493 9.36836 0.0434304 8.78036 0.358185C8.19236 0.672939 7.72482 1.17313 7.45042 1.78101C7.17602 2.38889 7.11013 3.07039 7.263 3.71958C6.0591 3.65999 4.88129 3.34723 3.80643 2.8017C2.73157 2.25617 1.78381 1.49014 1.025 0.553581C0.637157 1.22058 0.518469 2.01044 0.693156 2.76196C0.867842 3.51349 1.32274 4.17002 1.965 4.59758C1.465 4.58458 0.997 4.44758 0.59 4.21958V4.25658C0.58976 4.95568 0.831433 5.63333 1.274 6.17451C1.71657 6.71568 2.33276 7.08705 3.018 7.22558C2.75849 7.29582 2.49084 7.33146 2.222 7.33158C2.028 7.33158 1.838 7.31358 1.653 7.27558C1.84641 7.87732 2.22309 8.40354 2.73035 8.78062C3.2376 9.1577 3.85005 9.36677 4.482 9.37858C3.85416 9.87215 3.13505 10.2369 2.36592 10.4519C1.59679 10.6669 0.792778 10.728 0 10.6316C1.37785 11.5282 2.9871 12.0039 4.631 12.0006C10.203 12.0006 13.247 7.38558 13.247 3.38158C13.247 3.25058 13.243 3.11958 13.237 2.99158C13.8295 2.5624 14.3408 2.0311 14.747 1.42258Z" fill="white"/>
</svg>
