<svg viewBox="0 0 18 12" fill="none" xmlns="http://www.w3.org/2000/svg">
<path d="M16.9061 1.87771C16.716 1.14347 16.1587 0.564674 15.4519 0.366965C14.1607 0 8.99591 0 8.99591 0C8.99591 0 3.83129 0 2.54011 0.353052C1.84694 0.550552 1.27602 1.14357 1.08588 1.87771C0.746094 3.21879 0.746094 6 0.746094 6C0.746094 6 0.746094 8.79523 1.08588 10.1223C1.27622 10.8564 1.83334 11.4352 2.54021 11.6329C3.84489 12 8.99611 12 8.99611 12C8.99611 12 14.1607 12 15.4519 11.6469C16.1588 11.4493 16.716 10.8705 16.9063 10.1364C17.246 8.79523 17.246 6.01412 17.246 6.01412C17.246 6.01412 17.2596 3.21879 16.9061 1.87771ZM7.35155 8.56938V3.43062L11.6463 6L7.35155 8.56938Z" fill="white"/>
</svg>
