<svg viewBox="0 0 16 16" fill="white" xmlns="http://www.w3.org/2000/svg">
<path d="M5.01703 6.77438L8.00007 3.79135L10.9845 6.77567L12.7202 5.03999L8.00007 0.319986L3.28148 5.03858L5.01709 6.77426L5.01703 6.77438ZM0.320068 7.99998L2.05581 6.264L3.79143 7.99962L2.05569 9.73536L0.320068 7.99998ZM5.01703 9.22577L8.00007 12.2086L10.9845 9.22436L12.7211 10.9591L12.7202 10.96L8.00007 15.68L3.28148 10.9614L3.27902 10.9589L5.01722 9.22559L5.01703 9.22577ZM12.2087 8.00072L13.9444 6.26498L15.6801 8.0006L13.9444 9.73634L12.2087 8.00072Z" />
<path d="M9.76058 7.99908H9.76131L8.0002 6.23784L6.69847 7.5392L6.54892 7.68881L6.24049 7.9973L6.23804 7.99969L6.24049 8.00221L8.0002 9.76216L9.76144 8.00092L9.7623 7.99994L9.7607 7.99908" />
</svg>
