<svg viewBox="0 0 16 16" fill="none" xmlns="http://www.w3.org/2000/svg">
    <path d="M4.69696 6.45439L7.68 3.47136L10.6644 6.45568L12.4001 4.72L7.68 0L2.96141 4.71859L4.69703 6.45427L4.69696 6.45439ZM0 7.68L1.73574 5.94401L3.47136 7.67963L1.73562 9.41537L0 7.68ZM4.69696 8.90579L7.68 11.8886L10.6644 8.90438L12.401 10.6391L12.4001 10.6401L7.68 15.36L2.96141 10.6414L2.95895 10.6389L4.69715 8.9056L4.69696 8.90579ZM11.8886 7.68074L13.6244 5.94499L15.36 7.68061L13.6243 9.41635L11.8886 7.68074Z" fill="white" fill-opacity="0.2"/>
    <path d="M9.44051 7.67921H9.44124L7.68013 5.91797L6.3784 7.21933L6.22885 7.36894L5.92043 7.67743L5.91797 7.67982L5.92043 7.68234L7.68013 9.44229L9.44137 7.68105L9.44223 7.68007L9.44063 7.67921" fill="white" fill-opacity="0.2"/>
</svg>
