<svg viewBox="0 0 105 105" fill="none" xmlns="http://www.w3.org/2000/svg">
<circle cx="52.5" cy="52.5" r="52.5" fill="#242525"/>
<mask id="mask0_2101_29901" style="mask-type:alpha" maskUnits="userSpaceOnUse" x="0" y="0" width="105" height="105">
<circle cx="52.5" cy="52.5" r="52.5" fill="#242525"/>
</mask>
<g mask="url(#mask0_2101_29901)">
<path d="M99.5981 88.706C99.2497 85.8343 97.0175 83.6032 94.1729 83.0918C86.938 81.7768 78.6734 77.8325 70.5326 74.7616L69.5619 70.3627C68.9171 70.2028 68.1625 70.1344 67.4628 70.0203L67.4518 63.4259L68.0645 62.8221C69.5686 61.3355 70.4552 59.3871 70.6422 57.3246C70.7928 56.2225 70.8564 54.9603 71.0116 53.8079C71.5148 54.4114 72.9188 54.5893 73.4765 54.0313C73.9291 53.5144 74.2948 52.8375 74.5735 52.0005C75.4416 49.1376 75.898 45.7809 76.1393 41.9989C76.2258 40.4852 74.7987 39.4429 73.4543 39.7268C74.4951 32.7206 74.3151 26.8718 73.4903 20.863C71.3452 19.35 69.5523 18.4267 66.8221 18.3314L64.315 14.0975C55.3551 9.43084 41.2343 11.9041 33.1375 19.5388C31.9773 24.5054 31.9106 31.397 32.9372 39.6556C31.5927 39.3816 30.1844 40.3697 30.2946 41.952C30.4648 45.6698 30.9643 49.1132 31.8705 51.9848C32.1451 52.8719 32.5432 53.5166 33.0052 54.0149C33.5084 54.6184 34.9442 54.4442 35.4608 53.781C35.6029 55.0111 35.6993 56.1864 35.8505 57.3159C36.0706 59.3645 36.9628 61.2712 38.4449 62.8257L39.0533 63.388L39.0642 69.9823C38.392 70.1242 37.6741 70.2113 37.0019 70.3533L35.9879 74.826C27.899 77.8967 19.8287 81.882 12.3659 83.0822C9.48042 83.5815 7.34544 85.8731 6.88434 88.7222C6.06276 94.4296 3.45483 106.416 14.3067 106.436L100.989 106.38C100.877 99.2191 100.235 92.8719 99.5981 88.706Z" fill="#2E3031"/>
</g>
</svg>
