<svg viewBox="0 0 116 28" fill="none" xmlns="http://www.w3.org/2000/svg">
<path d="M2.58203 27.2643C2.12801 27.2677 1.68165 27.1472 1.29104 26.9158C0.900712 26.689 0.575962 26.3647 0.348585 25.9747C0.11778 25.5838 -0.00267723 25.1377 4.51425e-05 24.6837V23.5154H2.70333V24.5443H9.81355V22.3471H2.58203C2.1281 22.3498 1.68193 22.2294 1.29104 21.9986C0.902236 21.7728 0.577763 21.4513 0.348585 21.0645C0.116875 20.6716 -0.00270541 20.2226 0.00283619 19.7665V17.2891C-0.00211759 16.8322 0.118443 16.3828 0.351377 15.9897C0.581036 15.6037 0.905426 15.2827 1.29383 15.057C1.68433 14.8252 2.13068 14.7042 2.58483 14.7071H9.97388C10.425 14.7036 10.8684 14.8247 11.2551 15.057C11.6411 15.2858 11.9648 15.6061 12.1976 15.9897C12.4362 16.3807 12.5599 16.831 12.5545 17.2891V18.4574H9.81912V17.4285H2.7089V19.6271H9.98224C10.4332 19.6238 10.8764 19.7444 11.2635 19.9756C11.6499 20.2045 11.9736 20.5254 12.2059 20.9097C12.4446 21.3007 12.5683 21.751 12.5628 22.2091V24.6851C12.5658 25.1402 12.4423 25.5872 12.2059 25.9761C11.9755 26.3637 11.6514 26.6873 11.2635 26.9172C10.8766 27.1491 10.4333 27.2697 9.98224 27.2657L2.58203 27.2643Z" fill="white"/>
<path d="M14.4404 27.2656V17.1328H17.2134L20.5803 21.9636L23.9263 17.1328H26.7146V27.2656H24.0337V21.3195L20.5803 26.22L17.1089 21.3195V27.2656H14.4404Z" fill="white"/>
<path d="M28.795 27.2657V19.6801C28.7917 19.2375 28.9125 18.8029 29.1435 18.4254C29.3717 18.0465 29.6891 17.7292 30.0679 17.501C30.4513 17.2684 30.8922 17.1476 31.3407 17.1525H37.0094C37.4579 17.1478 37.8987 17.2685 38.2823 17.501C38.6597 17.7282 38.9745 18.0459 39.1982 18.4254C39.4235 18.8049 39.5411 19.2387 39.5384 19.6801V27.2657H36.87V24.8594H31.4634V27.2657H28.795ZM31.4634 22.191H36.87V19.8209H31.4634V22.191Z" fill="white"/>
<path d="M41.457 27.2632V17.1486H49.1821C49.631 17.1439 50.0723 17.2646 50.4563 17.4971C50.8351 17.7253 51.1525 18.0426 51.3807 18.4214C51.611 18.7993 51.7317 19.2337 51.7292 19.6762V21.628C51.7322 22.0459 51.627 22.4575 51.4239 22.8228C51.2215 23.187 50.9382 23.4999 50.5958 23.7374C50.2515 23.9802 49.8476 24.1248 49.4274 24.1556H49.3745L51.884 26.318V27.259H49.1821L45.7817 24.1556H44.1254V27.259L41.457 27.2632ZM49.0427 21.4733V19.817H44.1254V21.4733H49.0427Z" fill="white"/>
<path d="M56.9613 27.2631V19.8169H53.1064V17.1484H63.5362V19.8169H59.6465V27.2631H56.9613Z" fill="white"/>
<path d="M67.5119 27.2627C67.058 27.2654 66.6118 27.145 66.2209 26.9142C65.8313 26.6869 65.5071 26.3627 65.2799 25.9731C65.0486 25.5825 64.9281 25.1361 64.9313 24.6821V17.2931C64.9257 16.8361 65.0463 16.3865 65.2799 15.9937C65.5095 15.6081 65.8333 15.2872 66.2209 15.061C66.6117 14.8297 67.0579 14.7088 67.5119 14.7111H74.8898C75.3469 14.7061 75.7965 14.8272 76.1892 15.061C76.5745 15.2902 76.8977 15.6105 77.1303 15.9937C77.3694 16.3846 77.4936 16.8349 77.4886 17.2931V18.4795H74.7504V17.4325H67.6402V24.5427H74.7504V22.6592H72.029V19.9378H77.4886V24.6779C77.4911 25.1332 77.3671 25.5801 77.1303 25.9689C76.8999 26.3561 76.5764 26.6796 76.1892 26.91C75.7963 27.1434 75.3468 27.264 74.8898 27.2585L67.5119 27.2627Z" fill="white"/>
<path d="M79.3546 27.2657V19.6801C79.3513 19.2375 79.472 18.8029 79.7031 18.4254C79.9313 18.0465 80.2486 17.7292 80.6274 17.501C81.0115 17.2685 81.4528 17.1478 81.9017 17.1525H87.5689C88.0174 17.1476 88.4584 17.2684 88.8418 17.501C89.22 17.7272 89.5351 18.0451 89.7578 18.4254C89.9836 18.8047 90.1013 19.2386 90.098 19.6801V27.2657H87.4295V24.8594H82.023V27.2657H79.3546ZM82.023 22.191H87.4295V19.8209H82.023V22.191Z" fill="white"/>
<path d="M92.0176 27.2656V17.1328H94.7906L98.1519 21.9636L101.498 17.1328H104.286V27.2656H101.6V21.3195L98.1519 26.22L94.6804 21.3195V27.2656H92.0176Z" fill="white"/>
<path d="M106.387 27.2656V17.1328H115.718V19.8012H109.056V20.865H114.026V23.5515H109.056V24.5972H115.718V27.2656H106.387Z" fill="white"/>
<path d="M83.0947 14.9575V4.82051H91.1446C91.5135 4.8153 91.8767 4.91177 92.1944 5.09935C92.5076 5.28566 92.7693 5.54733 92.9556 5.86056C93.1471 6.17457 93.2475 6.53562 93.2456 6.90339V9.52581C93.2475 9.89358 93.1471 10.2546 92.9556 10.5686C92.7697 10.8822 92.5079 11.1439 92.1944 11.3299C91.8767 11.5174 91.5135 11.6139 91.1446 11.6087L85.2794 11.6226V14.9491L83.0947 14.9575ZM91.0317 9.41706V7.00656H85.2794V9.41706H91.0317Z" fill="url(#paint0_linear_1000_18737)"/>
<path d="M94.248 14.9575V4.82051H102.299C102.668 4.8153 103.031 4.91177 103.349 5.09935C103.662 5.28566 103.924 5.54733 104.11 5.86056C104.301 6.17468 104.401 6.53574 104.399 6.90339V9.52581C104.401 9.89345 104.301 10.2545 104.11 10.5686C103.924 10.8822 103.663 11.1439 103.349 11.3299C103.031 11.5174 102.668 11.6139 102.299 11.6087L96.4341 11.6226V14.9491L94.248 14.9575ZM102.186 9.41706V7.00656H96.4341V9.41706H102.186ZM102.129 14.9575L99.1834 11.447H102.046L104.385 14.2102V14.9575H102.129Z" fill="url(#paint1_linear_1000_18737)"/>
<path d="M107.935 14.9593C107.568 14.9628 107.208 14.8664 106.892 14.6805C106.577 14.4965 106.315 14.2343 106.131 13.9193C105.945 13.6034 105.848 13.2429 105.852 12.8765V6.8955C105.846 6.52658 105.943 6.16331 106.131 5.8457C106.316 5.5333 106.578 5.2736 106.892 5.09146C107.208 4.90564 107.568 4.80926 107.935 4.81262H113.913C114.277 4.80854 114.636 4.90502 114.949 5.09146C115.261 5.27596 115.523 5.53513 115.71 5.8457C115.904 6.16121 116.004 6.5252 116 6.8955V12.8737C116.002 13.2415 115.902 13.6027 115.71 13.9165C115.524 14.2297 115.262 14.4914 114.949 14.6777C114.636 14.8642 114.277 14.9607 113.913 14.9565L107.935 14.9593ZM113.79 12.7607V7.00843H108.038V12.7607H113.79Z" fill="url(#paint2_linear_1000_18737)"/>
<path d="M52.1071 14.9717H38.7231L38.8904 14.909C41.5394 13.9024 44.5605 13.5859 47.6653 13.7742C47.972 13.848 48.2759 13.9247 48.5771 14.0014C49.8193 14.3165 51.0057 14.6455 52.1071 14.9717Z" fill="url(#paint3_linear_1000_18737)"/>
<path d="M48.5727 14.0016C44.7555 13.7451 41.1153 14.1034 38.8861 14.9092L38.7188 14.972H24.7925C25.7112 13.8353 26.7196 12.7742 27.8081 11.7989C28.2904 11.7617 28.7737 11.7319 29.258 11.7096C32.7434 11.5711 36.2342 11.7485 39.6877 12.2394C42.3696 12.6156 45.0308 13.1274 47.6609 13.773C47.9621 13.8483 48.2716 13.925 48.5727 14.0016Z" fill="url(#paint4_linear_1000_18737)"/>
<path d="M48.5727 14.0016C44.7555 13.7451 41.1153 14.1034 38.8861 14.9092L38.7188 14.972H24.7925C25.7112 13.8353 26.7196 12.7742 27.8081 11.7989C28.2904 11.7617 28.7737 11.7319 29.258 11.7096C32.7434 11.5711 36.2342 11.7485 39.6877 12.2394C42.3696 12.6156 45.0308 13.1274 47.6609 13.773C47.9621 13.8483 48.2716 13.925 48.5727 14.0016Z" fill="url(#paint5_linear_1000_18737)"/>
<path d="M61.9635 10.4952C61.9482 10.1805 61.8487 9.87559 61.6753 9.61243C61.5019 9.34928 61.261 9.13753 60.9778 8.99931L57.8674 7.41415C56.9027 6.9485 57.1132 6.59578 56.7521 5.58919C56.6382 5.27553 56.4983 4.97194 56.3338 4.68159C56.2451 4.5244 56.1025 4.40458 55.9323 4.34421C53.9666 3.63179 49.3603 3.63179 48.8974 0C48.8974 0 47.0167 1.22965 46.6667 3.50213C45.3771 3.40315 44.1308 3.36272 42.9304 3.36272C25.6177 3.36272 17.5566 12.9559 17.5566 12.9559C21.2623 11.4851 25.2594 10.7866 29.2551 10.6012C32.7416 10.459 36.2339 10.6335 39.689 11.1226C45.7703 11.9591 51.768 13.6433 55.5824 14.9691H58.8587C58.9924 14.9693 59.1236 14.9328 59.2381 14.8638C59.3526 14.7947 59.4461 14.6957 59.5084 14.5774C60.124 13.4126 60.8685 12.3206 61.7279 11.322C61.9035 11.1407 61.9774 10.7866 61.9635 10.4952ZM56.1875 7.36675L56.1498 7.3556L56.1192 7.34584C55.9797 7.30122 55.7469 7.22873 55.4695 7.14647L55.383 7.11998C55.0484 7.0196 54.6581 6.90807 54.2858 6.81048L54.1841 6.78399C54.1682 6.77834 54.1519 6.77414 54.1353 6.77144L53.9875 6.7338C53.7937 6.685 53.6124 6.64318 53.4535 6.61251L55.2241 5.84711C55.2837 5.8257 55.3469 5.8163 55.4101 5.81945C55.4734 5.82259 55.5353 5.83822 55.5925 5.86544C55.6497 5.89266 55.7009 5.93092 55.7432 5.97802C55.7854 6.02513 55.818 6.08014 55.8389 6.13989L56.2683 7.39463L56.1875 7.36675Z" fill="url(#paint6_linear_1000_18737)"/>
<defs>
<linearGradient id="paint0_linear_1000_18737" x1="93.0253" y1="51.182" x2="87.7038" y2="6.99959" gradientUnits="userSpaceOnUse">
<stop stop-color="#702BAB"/>
<stop offset="0.46" stop-color="#E362A9"/>
<stop offset="1" stop-color="#FFC801"/>
</linearGradient>
<linearGradient id="paint1_linear_1000_18737" x1="104.017" y1="49.8575" x2="98.6954" y2="5.67513" gradientUnits="userSpaceOnUse">
<stop stop-color="#702BAB"/>
<stop offset="0.46" stop-color="#E362A9"/>
<stop offset="1" stop-color="#FFC801"/>
</linearGradient>
<linearGradient id="paint2_linear_1000_18737" x1="115.572" y1="48.468" x2="110.25" y2="4.28563" gradientUnits="userSpaceOnUse">
<stop stop-color="#702BAB"/>
<stop offset="0.46" stop-color="#E362A9"/>
<stop offset="1" stop-color="#FFC801"/>
</linearGradient>
<linearGradient id="paint3_linear_1000_18737" x1="48.4516" y1="10.4142" x2="41.2159" y2="21.2692" gradientUnits="userSpaceOnUse">
<stop stop-color="#7E30FF"/>
<stop offset="0.48" stop-color="#F068B3"/>
<stop offset="1" stop-color="#FFC801"/>
</linearGradient>
<linearGradient id="paint4_linear_1000_18737" x1="37.8363" y1="9.02029" x2="35.4034" y2="20.5528" gradientUnits="userSpaceOnUse">
<stop stop-color="#702BAB"/>
<stop offset="0.46" stop-color="#E362A9"/>
<stop offset="1" stop-color="#FFC801"/>
</linearGradient>
<linearGradient id="paint5_linear_1000_18737" x1="37.8363" y1="9.02029" x2="35.4034" y2="20.5528" gradientUnits="userSpaceOnUse">
<stop stop-color="#702BAB"/>
<stop offset="0.46" stop-color="#E362A9"/>
<stop offset="1" stop-color="#FFC801"/>
</linearGradient>
<linearGradient id="paint6_linear_1000_18737" x1="64.6863" y1="2.88173" x2="20.193" y2="18.9341" gradientUnits="userSpaceOnUse">
<stop stop-color="#7E30FF"/>
<stop offset="0.48" stop-color="#F068B3"/>
<stop offset="1" stop-color="#FFC801"/>
</linearGradient>
</defs>
</svg>
